<?xml version="1.0" encoding="UTF-8"?>
<svg id="Layer_1" data-name="Layer 1" xmlns="http://www.w3.org/2000/svg" viewBox="0 0 113.39 99.21">
  <defs>
    <style>
      .cls-1 {
        fill: #277496;
      }

      .cls-1, .cls-2, .cls-3, .cls-4, .cls-5, .cls-6, .cls-7 {
        stroke-width: 0px;
      }

      .cls-8 {
        stroke-dasharray: 0 .98;
      }

      .cls-8, .cls-9, .cls-10, .cls-11, .cls-12, .cls-13, .cls-14, .cls-15, .cls-16, .cls-17, .cls-18, .cls-19, .cls-20, .cls-21, .cls-22, .cls-23 {
        stroke: #fff;
        stroke-width: .28px;
      }

      .cls-8, .cls-9, .cls-11, .cls-12, .cls-14, .cls-15, .cls-16, .cls-17, .cls-18, .cls-20, .cls-23 {
        fill: none;
      }

      .cls-8, .cls-9, .cls-11, .cls-14, .cls-15, .cls-16, .cls-17, .cls-19, .cls-20, .cls-22, .cls-23 {
        fill-rule: evenodd;
      }

      .cls-9 {
        stroke-dasharray: 0 1.42;
      }

      .cls-10, .cls-13, .cls-14, .cls-18, .cls-19 {
        stroke-miterlimit: 10;
      }

      .cls-2 {
        fill: #fcfceb;
      }

      .cls-11 {
        stroke-dasharray: 0 1.9;
      }

      .cls-13, .cls-3, .cls-19, .cls-22 {
        fill: #fff;
      }

      .cls-15 {
        stroke-dasharray: 0 1.19;
      }

      .cls-16 {
        stroke-dasharray: 0 1.52;
      }

      .cls-17 {
        stroke-dasharray: 0 1.19;
      }

      .cls-4 {
        fill: #e2e2de;
      }

      .cls-20 {
        stroke-dasharray: 0 .89;
      }

      .cls-5 {
        fill: #e8e8e8;
      }

      .cls-6 {
        fill: #7f682d;
      }

      .cls-7 {
        fill: #165a80;
      }
    </style>
  </defs>
  <path class="cls-6" d="M14.86,66.97s2.3,1.26,4.72,2.91c.92.63,3.01,1.8,3.9,2.19,1.99.87,3.38.86,3.38.86,0,0-2.49-1.49-3.1-1.92-.74-.52-2.32-1.66-3.1-2.12-1.06-.63-5.8-1.92-5.8-1.92Z"/>
  <path class="cls-6" d="M33.69,61.71h0s1.88.58,3.85,2.01c1.24.9,2.7,2.45,3.68,3.44.07.07-2.33-1.33-3.73-2.64s-3.79-2.81-3.79-2.81Z"/>
  <path class="cls-6" d="M23.45,64.38c1.49-.86,2.25-1.55,4.38-2.05,3.13-.74,5.97.28,8.26,2.17,4.01,3.31,4.86,3.34,5.31,3.85-1.09.21-2.73.71-4.79,1.51-1.34.52-4.08,1.71-6.43,1.52-3.72-.3-5.3-1.76-6.97-2.72-1.78-1.03-4.06-2.09-5.3-2.1,2.51.86,3.58,1.35,5.63,2.61,1.46.89,3.3,2.3,6.43,2.5,2.18.14,3.35-.22,6.78-1.64,2.72-1.13,4.53-1.47,4.85-1.61.38-.16-1.49-.98-3.35-2.5-.97-.79-3.44-2.92-5.21-3.56-1.78-.64-3.92-.68-5.33-.3-3.33,1.03-2.8,1.4-6.54,3.28-1.66.83-2.34.88-3.26,1.22,2.03-.12,3.81-1.17,5.54-2.17Z"/>
  <g id="Pluma_blanca" data-name="Pluma blanca">
    <path class="cls-5" d="M82.7,50.72c-1.08.5-1.79,1.71-1.7,2.9-.43-1.74,1.03-3.69,2.83-3.76-.05-.32-.41-.52-.74-.51-.33,0-.63.16-.93.29-2.42,1.04-5.47.34-7.2-1.65.95,1.1,2.39,1.76,3.85,1.76-2.55-.86-4.68-2.9-5.65-5.41,1.16,1.35,2.03,2.97,3.44,4.05,1.41,1.08,3.69,1.37,4.82,0-1.06.18-2.13-.37-2.93-1.1-.79-.73-1.4-1.64-2.15-2.42-1.6-1.66-3.86-2.66-6.16-2.72,1.52-.23,3.07.28,4.37,1.09,1.3.82,2.38,1.93,3.44,3.04.28.29.58.6.98.69.4.09.89-.14.92-.55.02-.26-.16-.5-.34-.69-1.52-1.68-3.53-2.82-5.4-4.11-1.86-1.29-3.68-2.86-4.45-4.99,1.55,2.37,3.9,4.1,6.19,5.77.85.62,1.72,1.25,2.73,1.54.37.11.92.04.93-.34,0-.14-.46.05-.55-.05-.73-.86-2.84-1.87-3.75-3.5.64.49,3.05,1.92,3.69,2.41-1.27-1.71-3.39-2.53-5.05-3.87-.94-.75-1.73-1.67-2.67-2.43-.94-.75-2.08-1.35-3.28-1.29,3.2-.31,5.44,4.08,8.64,3.72-.59-.07-1.07-.49-1.51-.89-2.16-2-4.24-4.1-6.23-6.27,1.39.93,2.4,2.32,3.58,3.51,1.19,1.18,2.73,2.21,4.4,2.07-1.49-1.11-3.04-2.31-3.72-4.03-.26-.66-.37-1.37-.61-2.03-.21-.59-.51-1.14-.75-1.71-.6-1.42-.84-2.99-.68-4.53.01,2.1,2.66,7.2,5.14,8.2.08-1.99-2.29-3.36-3.25-5.73-.16-.39-.32-.79-.65-1.05-.28-.22-.64-.33-.99-.38-1.43-.23-2.95.27-3.96,1.3.73-.97,1.92-1.56,3.13-1.56,1.21,0,2.4.6,3.13,1.56.3-.37-.04-.89-.34-1.26-1.37-1.72-1.93-4.06-1.49-6.21-.09,1.04.26,2.12.94,2.91-.33-2.09.04-4.28,1.03-6.15-.38,1.23-.58,2.54-.32,3.8.26,1.26,1.04,2.45,2.2,3-1.25-3.26-1.18-7,.2-10.21-.49,1.02-.61,2.21-.36,3.31.17-2.02,1.16-3.91,2.52-5.42,1.36-1.5,3.08-2.65,4.87-3.6-2.32.89-4.23,2.79-5.12,5.11.62.55,1.54-.14,2.16-.69,1.42-1.25,3.37-1.9,5.26-1.75-2.86.27-5.83,3.05-6.07,6.82,2.84-2.66,4.01-4.56,6.67-4.74,1.43-.1,2.93.07,3.87,1.16-1.37-1.05-3.37-.96-4.92-.2-1.55.77-2.74,2.1-3.8,3.46.05.42.7.23,1-.07,1.83-1.86,3.32-4.07,4.34-6.47-.18,1.36-1.09,2.48-1.86,3.61-1.68,2.48-2.78,5.35-3.21,8.31,1.7-2.37,3.02-5.01,3.89-7.79-.71,2.56-1.71,5.03-2.97,7.37-.5.93-1.07,1.96-.85,3,2.04-3.23,4.26-6.33,6.66-9.3-2.47,3.8-4.75,7.73-6.82,11.76.91-.61,1.58-1.51,2.23-2.4,1.82-2.49,3.74-5.09,6.53-6.42-3.54,2.93-6.36,6.72-8.16,10.95,1.55-.9,2.65-2.45,3.33-4.11.69-1.66,1-3.45,1.31-5.22-.13,2.68-.29,5.47-1.6,7.81-1.06,1.9-2.87,3.59-2.81,5.76,1.69-2.39,3.4-4.8,5.48-6.87-1.93,3-3.86,6-5.79,9,2.88-1.32,4.16-5.23,7.24-5.94-1.41,1.14-2.83,2.28-3.99,3.67-1.16,1.39-2.05,3.07-2.22,4.87,1.7-1.28,2.63-3.35,3.22-5.39.6-2.05.94-4.18,1.81-6.13-.51,2.95-1.03,5.92-2.04,8.74-.73,2.04-1.73,4.03-1.89,6.19,2.5-3.99,5.22-8.17,9.46-10.2-4.03,3.14-7.11,7.47-8.74,12.31,1.05-.59,2.57-1.87,3.18-2.91,2.73-4.62,2.03-7.23,2.06-11.18.31,3.07.62,6.27-.39,9.19-.94,2.72-2.97,5.04-3.49,7.87.61-1.46,1.94-2.65,3.5-2.84,1.57-.19,3.26.8,3.64,2.33-.35-1.13-1.67-1.77-2.84-1.59-1.17.18-2.15,1.02-2.76,2.03-.61,1.01-.91,2.18-1.16,3.33,2.81-3.53,2.8-8.76,5.77-12.17-1.41,1.95-1.76,4.45-2.17,6.83-.41,2.38-1,4.88-2.71,6.57-.82.81-1.15.21-1.98-.15-.77-.34-1.68-.35-2.45,0Z"/>
    <path class="cls-3" d="M76.54,48.11c1.98,1.24,4.04,2.41,6.29,3.02.81.22,1.72.34,2.43-.1-.91-.89-1.97-1.63-3.12-2.18.84.24,1.68.49,2.51.73-1.71-.66-3.43-1.33-5.01-2.25-1.58-.93-3.04-2.13-4.01-3.69,1.48,1.35,3.21,2.42,5.07,3.15.65.26,1.35.47,2.05.39-.27-.17-.52-.36-.76-.58.28.04.56.09.84.13-.19-.15-.38-.3-.56-.45-.01.07.12.08.15,0,.02-.07-.02-.14-.07-.2-.3-.34-.69-.59-1.07-.83-2.77-1.68-5.95-3.02-7.75-5.72.93.98,1.89,1.97,3.09,2.58,1.2.61,2.72.78,3.87.09-1.67-.97-3.35-1.94-5.18-2.53-1.83-.6-3.85-.8-5.68-.2,1.85-.63,3.89-.52,5.78,0,1.88.53,3.63,1.45,5.31,2.45-.32-.43-.64-.86-.96-1.29.29.22.61.41.94.56-.19-.22-.37-.44-.56-.65-.04.04.07.09.09.04.03-.05-.02-.11-.06-.16-.86-.97-1.73-1.94-2.75-2.73-.95-.74-2.01-1.31-2.98-2.01-1.63-1.19-2.97-2.76-3.88-4.55.99,1.86,2.68,3.23,4.4,4.44,1.5,1.05,3.05,2.02,4.65,2.9.53.29,1.08.58,1.5,1.02.45.47.71,1.08.91,1.69.38,1.16.53,2.39.89,3.56.36,1.17.91,2.27,1.5,3.34.3.55.6,1.09.9,1.64.26.48.76,1.16.83,1.71.23,1.84-5.45-.42-6.21-.82-1.24-.65-2.39-1.49-3.37-2.49Z"/>
    <path class="cls-3" d="M76.61,38.54c-1.75-.48-3.51-1.12-4.87-2.34,1.33.7,2.69,1.36,4.16,1.69,1.46.33,3.05.3,4.41-.34-.62-.08-1.22-.32-1.73-.7.4.21.89.24,1.32.08-1.8-.33-3.26-1.66-4.3-3.16-1.04-1.5-1.75-3.21-2.7-4.76.65.44,1,1.19,1.37,1.88.58,1.09,1.27,2.13,2.2,2.94.93.81,2.1,1.38,3.33,1.42-.26-.16-.52-.32-.78-.49.15.05.3.08.46.09-1.13-.63-2.26-1.26-3.47-1.73-2.08-.81-4.44-1.15-6.11-2.63,2.62,1.49,5.66,2.24,8.67,2.15-1.24-.9-2.33-1.99-3.23-3.23.3.24.62.45.96.62-1.1-.95-2.43-1.64-3.85-1.98,1.6.08,3.16.72,4.35,1.78.6.53,1.13,1.18,1.86,1.5-.74-1.21-1.82-2.21-3.07-2.87-.99-.52-2.12-.86-2.86-1.7-.87-.99-.95-2.59-.17-3.66-.53.97-.39,2.23.24,3.14.63.91,1.69,1.47,2.78,1.64.33.05.7.06.98-.12.13-.08.23-.21.23-.37,0-.13-.08-.24-.17-.34-.66-.78-1.66-1.27-2.68-1.31,1.38-.09,2.62.79,3.73,1.62.16-.38-.2-.76-.51-1.04-1.68-1.51-2.73-3.69-2.86-5.94.31,2.15,1.52,4.15,3.28,5.42.5.36,1.08.7,1.33,1.27.11.25.15.53.19.81.24,1.94.34,3.91.78,5.81.34,1.45.88,2.85,1.31,4.27.1.32.67,1.86.34,2.01-.18.08-.9-.32-1.11-.39-.37-.13-.75-.24-1.13-.35-.89-.25-1.79-.46-2.68-.71Z"/>
    <path class="cls-3" d="M74.62,24.25c-1.42-.98-2.75-2.15-3.56-3.67,1.64,2.53,4.26,4.4,7.18,5.13-.73-.5-1.35-1.16-1.8-1.93.31.37.71.68,1.15.89-1.07-.73-1.54-2.04-2.29-3.09-.75-1.06-1.82-1.88-3.03-2.34,1,.33,1.91.9,2.65,1.65.62.63,1.11,1.38,1.82,1.91.12.09.31.18.42.08.12-.1.06-.3-.02-.43-.3-.53-.71-.98-1.08-1.46-.7-.88-1.3-1.84-1.63-2.91-.33-1.07-.37-2.25.03-3.3-.27,1.19,0,2.46.57,3.53.57,1.08,1.44,1.97,2.39,2.74.13.11.37.19.43.03.03-.07,0-.15-.04-.21-.39-.73-1.14-1.19-1.91-1.51-.76-.32-1.57-.53-2.29-.94,1.32.34,2.63.69,3.95,1.03-.47-.64-.94-1.28-1.22-2.02-.34-.87-.39-1.85-.16-2.76-.12,1.19.26,2.43,1.03,3.34.14-.11.11-.32.07-.49-.33-1.32-.22-2.74.24-4.02.46-1.28,1.26-2.43,2.26-3.35-.68.83-1.2,1.78-1.55,2.8-.15.46-.27.95-.19,1.43.04.23.13.44.17.67.09.48-.02.97-.07,1.45-.04.44-.03.89-.02,1.33.05,1.82.11,3.65.29,5.46.09.91.21,1.83.38,2.73.05.26.37,1.02-.11.82-.43-.18-.84-.56-1.23-.8-.95-.6-1.92-1.17-2.85-1.81Z"/>
    <path class="cls-2" d="M88.68,42.72c-.46.47-.74,1.08-1.01,1.68-.49,1.09-.98,2.18-1.47,3.27-.07.16-.18.34-.35.36-.22.02-.35-.25-.36-.48-.01-.46.21-.9.48-1.28.44-.62,1.04-1.16,1.78-1.33.54-.13,1.11-.04,1.64.13.88.29,1.68.82,2.29,1.52-.96-.83-1.96-1.69-3.2-1.99-.77-.18-1.58-.13-2.37-.02-.23.03-.53.03-.6-.19-.03-.1,0-.2.04-.3.64-1.71,1.27-3.43,1.69-5.21.42-1.78.62-3.63.38-5.44-.04,3.54-1.05,7.06-2.87,10.1-.12.2-.36.42-.54.29-.13-.09-.12-.28-.08-.43.09-.41.23-.8.37-1.19.64-1.83,1.11-3.72,1.41-5.63-.43,1.9-.86,3.82-1.72,5.57-.13.27-.33.58-.63.59-.33-.63-.23-1.42.1-2.05.32-.63.84-1.15,1.34-1.65-.61.48-1.22.96-1.83,1.44-.1-.88.55-1.63,1.09-2.33,1.16-1.48,2-3.19,2.83-4.88-1.13,2.23-2.98,4.01-4.29,6.14-.41.66-.77,1.39-.71,2.16.02.27.1.54.17.8.68,2.33,1.5,4.61,2.47,6.83.19.43.65,1.83,1.17,1.95.47.11.62-.75.67-1.06.28-1.64.6-3.24,1.13-4.83.14-.43.3-.86.47-1.29.13-.34.27-1,.53-1.27Z"/>
    <path class="cls-3" d="M84.87,37.87c1.33-.95,2.87-1.55,4.4-2.15-1.57.12-3.1.69-4.35,1.65-.56.42-1.06.92-1.67,1.26-.19.11-.49.17-.59-.02-.04-.09-.03-.19,0-.28.35-1.62,1.4-3.02,2.65-4.09,1.26-1.08,2.72-1.87,4.18-2.66-2.54,1.18-4.94,2.66-7.15,4.4.77-1.75,1.84-3.35,2.9-4.95-1.12,1.46-2.24,2.92-3.37,4.38-.12.15-.27.32-.45.3-.3-.03-.34-.44-.29-.73.44-2.33,1.92-4.39,3.86-5.75,1.94-1.36,4.3-2.04,6.67-2.17-3.22.16-6.61.87-8.93,3.1-.69.66-1.3,1.46-2.2,1.77,2.18-2.53,3.41-5.86,3.4-9.2-.43,1.66-.85,3.33-1.49,4.92-.44,1.11-1.15,2.31-2.33,2.51.33-1.04.91-1.99,1.68-2.76-.6.31-1.15.71-1.63,1.18.15-.7.44-1.38.85-1.97-.27.3-.58.55-.93.75,1.87-2.87,3.32-6.02,4.28-9.3-.73,2.24-1.83,4.35-3.24,6.24-.17.22-.39.47-.67.42-.27-.05-.41-.35-.46-.62-.34-1.69.81-3.43,2.34-4.22,1.53-.8,3.35-.84,5.06-.65-2.76-.33-5.62.21-8.06,1.54.13-.58.26-1.18.6-1.67.39-.55.99-.9,1.56-1.26,1.73-1.11,3.28-2.5,4.56-4.11-1.75,2.16-4.5,3.18-6.78,4.77.32-1.15.63-2.3.95-3.45-.38.72-.76,1.45-1.14,2.17.12-1.01.86-1.83,1.41-2.68,1.03-1.59,1.48-3.54,1.27-5.42-.15.5-.29,1-.44,1.51-.02-.18-.04-.37-.07-.55-.23,1.6-1.04,3.1-2.24,4.18-.22.2-.46.39-.58.67-.08.18-.09.39-.11.58-.47,7.42,1.08,14.81,2.62,22.09.3,1.4.53,3.06,1.28,4.3-.01-1.64,1.35-3.08,2.62-3.99Z"/>
    <path class="cls-4" d="M81.52,40.31c-2.51-9.4-3.64-18.5-3.38-23.4.06-1.19.09-2.41.54-3.51-1.52,6.48,1.42,23.17,5.55,33.95.49,1.27,3.23,5.95,3.91,7.12-.71-.09-1.22-1.47-1.56-2.02-.57-.91-1.09-1.85-1.58-2.8-.96-1.88-1.76-3.85-2.43-5.85-.39-1.15-.73-2.31-1.05-3.48Z"/>
  </g>
  <g id="Flor_azul" data-name="Flor azul">
    <path class="cls-7" d="M83.07,52.46c.87.21,1.66.77,2.15,1.52.42.64.59,1.56.09,2.14.65-.18,1.09-.85,1.12-1.52.04-.67-.27-1.33-.7-1.84.45.05.89.17,1.31.33-.64-.76-1.37-1.46-2.25-1.93-.88-.46-1.93-.66-2.88-.39-.5-1.41-1.62-2.58-3.01-3.13-.61-.24-1.29-.37-1.91-.17-.62.2-1.14.8-1.08,1.45-.09-.52.41-1.01.94-1.06.53-.05,1.04.21,1.45.54,1.17.92,1.85,2.41,1.82,3.9-.01.77.03.75.7.41.71-.36,1.47-.45,2.25-.26Z"/>
    <path class="cls-7" d="M100.2,37.04c4.82-3.14,7.91-8.78,7.94-14.53-.16.24-.45.39-.73.38.94-3.41-.78-7.37-3.91-9.01-3.13-1.64-7.36-.81-9.64,1.9-.22.27-.43.55-.56.87-.2.51-.18,1.08-.13,1.63.17,1.92.72,3.8,1.6,5.51-1.05-1.26-1.8-2.77-2.16-4.37-.24,1.33-.14,2.73.29,4.01-.91-.95-1.6-2.11-2-3.37-1.79,3.78-2.15,8.22-1.01,12.24-1.23-2.28-2.21-4.7-2.91-7.2-1.94,4.13-1.85,8.89-1.73,13.45-.17-.36-.33-.72-.5-1.08-.03.39-.06.77-.09,1.16-.34-.61-.68-1.22-1.02-1.83.37,2.33.26,4.74-.33,7.03-.04-1.68-.97-3.31-2.39-4.21,1.56,2.6,1.01,5.93.04,8.8,0-2.14-1.46-4.21-3.48-4.92,1.05,1.57,1.88,3.29,2.48,5.08.28.83.6,2.22,1.43,2.7.7.41,1.64-.16,2.42-.26,1.89-.24,3.7-.12,5.57-.56-.46.11-.94.09-1.39-.04,1.58-1.04,3.67-1.27,5.44-.6-.47-.47-1.05-.82-1.67-1.03,3.09-.39,5.58-2.62,7.85-4.75-.26.13-.51.25-.77.38,2.97-3.35,5.29-7.29,6.77-11.51-1.46,1.76-3.33,3.18-5.41,4.12ZM89.04,33.86c-.17.43-.74.59-1.18.44-.44-.15-.75-.54-.98-.94-.11-.19-.2-.41-.16-.63.07-.37.51-.58.88-.52.37.05.69.29.99.52l-.05-.16c.2.08.34.27.43.47.12.26.17.56.07.82ZM93.17,31.05c-.13.49-.52.93-1.01,1.05s-1.08-.13-1.27-.6c-.08-.19-.09-.41-.09-.62,0-.49.1-.98.28-1.44.07-.18.15-.35.29-.47.25-.21.63-.22.92-.09.77.34,1.08,1.4.87,2.18ZM102.58,23.54c-.19.19-.52.17-.76.04-.54-.28-.81-.9-.97-1.49-.06-.23-.12-.47-.09-.7.22-1.78,1.86.92,1.95,1.51.03.22.02.47-.14.63ZM100.74,17.34c.13-.18.4-.21.61-.13.21.08.37.24.53.4l-.12.13c.16.21.14.53-.03.73-.18.19-.5.24-.72.1-.25-.16-.34-.49-.36-.79,0-.15,0-.32.09-.45ZM98.23,38.24c-.19.41-.58.75-1.03.8-.55.06-1.08-.34-1.31-.84-.23-.51-.2-1.09-.06-1.63.21-.81,1.07-1.66,1.92-1.07.74.51.83,2.01.49,2.75ZM98.98,21.34c-.07.12-.17.25-.16.38,0-.01,0-.02.01-.03v.11s0-.05-.01-.08c-.16.55-.74.94-1.3.87-.58-.07-1.07-.6-1.08-1.18,0-.4.18-.79.47-1.08.4-.39,1.02-.59,1.54-.38.52.21.82.9.53,1.38ZM99.53,15.36c-.07.31-.32.6-.63.64-.17.02-.35-.03-.5-.12-.46-.28-.64-.95-.34-1.4.3-.44,1.04-.5,1.38-.09l-.06.04c.13.29.22.62.15.93ZM99.74,31.17c.08-.57.38-1.13.9-1.39,1.21-.59,1.94.77,1.54,1.75-.15.38-.38.75-.71.98-.34.23-.8.32-1.16.12-.5-.26-.65-.92-.56-1.48Z"/>
    <path class="cls-1" d="M97.78,44.24c-2.41,1.13-4.93,2.28-7.59,2.24,4.02-.75,7.46-3.36,10.32-6.28-.39.36-.86.62-1.37.77.71-.46,1.36-1.02,1.92-1.65-.27.23-.61.39-.96.47,1.02-.77,1.94-1.69,2.7-2.71-1.84,1.46-3.73,2.89-5.81,3.98-2.08,1.1-4.38,1.86-6.73,1.9.56-.14,1.1-.38,1.58-.7-.77.16-1.56.19-2.34.1,2.89-.78,5.65-2.06,8.11-3.76-1.9.88-3.87,1.6-5.88,2.17-.65.18-1.32.35-1.88.74-.99.67-1.47,1.87-2.14,2.86-.8,1.16-1.9,2.04-2.82,3.1-1.03,1.19,1.57.69,2.13.61,2.43-.33,4.82-.98,7.08-1.94,1.28-.54,2.43-1.31,3.68-1.9Z"/>
    <path class="cls-1" d="M88.12,33.18c.52,2.41.4,4.96-.35,7.31.25-.76.3-1.59.13-2.38-.28,2.76-1.73,5.25-3.15,7.63.48-1.46.63-3.02.44-4.54-.19,2.75-.38,5.54-1.35,8.12.77-1.15,1.58-2.28,2.43-3.38.59-.76,1.26-1.42,1.63-2.32.88-2.1,1.18-4.49,1-6.75-.1-1.28-.51-2.43-.78-3.67Z"/>
    <path class="cls-1" d="M96.79,29.04c-.22-.68-.75-1.76-.7-2.48-.05.85.03,1.7.24,2.52-.37-.7-.67-1.44-.91-2.2.07,1.2.14,2.39.2,3.59-.92-1.59-1.66-3.28-2.21-5.03-.02,2,.23,4,.73,5.94-1-2.38-1.9-4.8-2.71-7.26-.02,1.6.09,3.2.34,4.79.15,0,.3.03.44.09.77.34,1.08,1.4.87,2.18-.1.36-.33.69-.64.89.35,1.3.8,2.57,1.33,3.81.87-1.7,1.85-3.35,2.91-4.94.54-.82.4-.98.1-1.88Z"/>
    <path class="cls-1" d="M106.96,28.13c-1.49,1.42-3.15,2.66-4.93,3.68-.15.33-.36.63-.65.84-.34.23-.8.32-1.16.12,0,0-.01,0-.02,0-1.01.47-2.04.89-3.1,1.22.7-.38,1.33-.88,1.86-1.47-.38.27-.84.43-1.3.44.27-.21.54-.41.82-.62-.17.03-.33.06-.5.1.57-.3,1.12-.62,1.66-.96,0-.06,0-.12.02-.18.08-.57.38-1.13.9-1.39.48-.24.89-.16,1.18.08,1.58-1.26,3-2.71,4.21-4.32-1.54,1.44-3.34,2.62-5.28,3.46,1.24-1.03,2.44-2.1,3.6-3.21-.75.53-1.56.98-2.41,1.34,2.52-1.91,4.15-4.95,4.33-8.1-.68,1.71-1.92,3.19-3.49,4.14,1.01-1.28,1.59-2.88,1.64-4.51-.38.85-.87,1.66-1.46,2.38.89-1.55,1.28-3.38,1.11-5.16-.1,2.02-1.09,3.78-2.17,5.53.4.52.76,1.23.8,1.49.03.22.02.47-.14.63-.19.19-.52.17-.76.04-.34-.17-.57-.48-.74-.84-.36.58-.7,1.17-1,1.77-.51,1.01-.9,2.08-1.42,3.09-.67,1.3-1.55,2.48-2.36,3.71-1.17,1.77-2.18,3.64-3.24,5.48-.44.77-1.27,1.66-1.53,2.46.53.31,1.51-.22,2.03-.45.74-.32,1.47-.66,2.19-1.03-.08-.4-.04-.83.07-1.23.21-.81,1.07-1.66,1.92-1.07.27.19.45.51.56.88,2.78-1.7,5.34-3.75,7.59-6.11-.66.49-1.31.98-1.97,1.47,1.27-1.03,2.33-2.3,3.13-3.73Z"/>
    <path class="cls-7" d="M99.48,26.46c.37-.75.74-1.52.91-2.35-.35-.02-.54.4-.64.73-.63,2.04-1.82,3.85-2.9,5.69-8.41,14.26-16.25,21.81-18.87,24.2.88.15,1.59-.93,2.12-1.46.85-.84,1.68-1.69,2.5-2.56,1.64-1.73,3.21-3.53,4.72-5.38,3.03-3.71,5.79-7.64,8.26-11.75,1.4-2.32,2.7-4.7,3.9-7.13Z"/>
  </g>
  <path id="Luna" class="cls-6" d="M103.11,32.62c.97,8.85-5.61,16.79-14.45,17.76s-16.8-5.42-17.77-14.26c-.97-8.85,5.42-16.8,14.26-17.77,1.41-.15,3.24-.19,4.58.03.74.13,1.85.33,2.79.73.02,0,.39.12,0,.03-.75-.16-3.2-.32-4.02-.27-.35.02-.7.12-1.27.18-7.24.76-12.61,8.05-12.15,15.31.48,7.48,7.68,12.45,14.92,11.65,7.24-.79,12.75-8.47,11.96-15.71-.02-.18-.03-.39-.06-.57,0-.05-.07-.31-.07-.36-.09-.57-.82-2.95-.98-3.5.65.9,1.44,2.79,1.52,3.03.33,1.04.6,2.3.76,3.71Z"/>
  <path id="Mascara" class="cls-7" d="M49.82,57.89s5.15-2.98,8.78-5.09c1.1-.64,11.05-8.07,17.07-8.01,3.03.03,4.39-.26,8.04,1.25,2.44,1.01,4.45,2.82,6.08,4.88,2.62,3.34,2.85,13.02,2.03,16.32-1.43,5.72-2.56,11.2-4.65,16.97-1,2.76-2.03,5.1-4.65,6.61-3.36,1.95-5.63,2.21-8.58,1.79-3.88-.56-8.35-5.33-10.84-7.72-2.94-2.82-5.31-4.87-7.8-5.92-3.01-1.26-5.6-1.6-5.6-1.6,0,0,1.74-.41,3.75-.06,3.86.68,4.94,1.75,7.27,3.82,1.21,1.07,6.27,7.29,8.22,8.57.62.4,2.11,2.02,4.94,2.56,1.91.36,4.38,0,6.49-1.2,2.2-1.26,4.41-3,5.96-6.55,1.11-2.54,2.44-6.84,3.11-9.53.41-1.63,1.68-6.64,2.01-8.16,1.01-4.71.48-9.01-1.01-13.28-.62-1.77-2.29-3.96-3.99-5.06-1.26-.82-2.38-1.73-5.96-2.74-2.34-.66-4.26-.65-7.45-.16-3.34.52-6.39,3.21-8.88,4.66-1.22.71-3.19,2.16-4.82,3.04-4.65,2.51-9.52,4.61-9.52,4.61Z"/>
  <g id="Flor_ojo_izq" data-name="Flor ojo izq">
    <g>
      <path class="cls-9" d="M19.73,61.73c.26-.26.75-.22,1.09-.22-.28.22-.3.69-.56.95-.27.27-.67.17-.94.39.14-.31.19-.89.42-1.12Z"/>
      <path class="cls-11" d="M19.65,61.6c.35-.35,1-.29,1.46-.3-.37.3-.41.92-.76,1.27-.36.37-.9.23-1.26.53.18-.41.25-1.19.56-1.5Z"/>
    </g>
    <path class="cls-12" d="M15.58,65.67c-2.03.88-4.6.31-6.06-.33-.89-.39-1.72-1.05-2.21-1.68-.78-1-.75-2.36-.75-2.36,0,0-.22,1.88.5,3,.47.74,1.03,1.26,2,1.71.79.37,4.8,1.59,6.48.39,1.05-.3,3.12.1,2.7,1.05.39-.24.3-.92-.11-1.1.1-.02,1.33-.43,1.23-.81-.19.13-.63.2-1.8.28-1.33.04-1.81-.19-1.98-.15Z"/>
    <path class="cls-12" d="M22.38,60.45c-.28.01-.51.26-.47.37.79-.62,1.11.19,1.18.36.38.95-.97,2.19-1.16,2.34-1.48,1.12-3.15,1.26-3.39,1.3-1.37.16-2.59.59-2.78.68-1.26.56-2.21,1.18-2.26,1.33-.04.16.07.1.07.1.29-.62.98-.44,1.13-.58.93-.91,2.87-1.25,3.13-1.26,1.7-.24,2.58-.61,2.8-.69,2.59-1.14,2.7-2.7,2.67-2.95-.11-.79-.65-1.01-.92-1Z"/>
    <path class="cls-23" d="M20.36,61.74c.56-.1,1.03-.47,1.32-.94-.29-.53-1.18-.78-1.71-.24-.27.27-.88,1.1-1.5.83.38.4,1.36.44,1.89.35Z"/>
    <path class="cls-23" d="M20.88,59.68c-.35-.48-.38-1.01-.37-1.58.26.65,1.21.58,1.56,1.15.28.47.07,1-.19,1.43-.18-.44-.72-.62-1-1Z"/>
    <path class="cls-23" d="M21.06,61.82c.06-.42.54-.71.85-.95-.1.39.19.84.13,1.26-.06.44-.5.62-.6,1.01-.08-.38-.44-.95-.38-1.32Z"/>
    <path class="cls-23" d="M20.4,61.06c-.53.05-.93-.17-1.37-.43.61.09.98-.66,1.57-.67.48,0,.79.4,1,.78-.42-.06-.79.27-1.21.31Z"/>
    <path class="cls-22" d="M20.55,61.93c.15-.37.65-.52.98-.66-.18.33-.02.8-.17,1.17-.16.38-.59.44-.77.77,0-.36-.18-.95-.04-1.28Z"/>
    <path class="cls-23" d="M20.78,59.14c.39.28.44.9.52,1.33-.34-.3-.94-.23-1.33-.5-.41-.28-.37-.81-.71-1.1.42.1,1.17.04,1.51.28Z"/>
    <path class="cls-16" d="M22,58.76c.13.38-.15.82-.3,1.15-.08-.37-.51-.62-.64-.99-.13-.39.15-.72.07-1.09.23.28.76.6.87.93Z"/>
    <path class="cls-8" d="M23.69,60.43c.09.08.12.11.2.25.07.12.1.28.14.41.03.1.09.22.15.31.07.1.13.17.29.26-.13-.01-.24,0-.33-.03-.1-.02-.18-.06-.27-.12-.11-.08-.22-.31-.28-.43-.15-.33-.31-.51-.61-.73-.12-.09-.27-.15-.42-.18.22,0,.45-.02.63.03.19.05.35.11.49.24Z"/>
    <path class="cls-8" d="M23.91,60.47c.32.44.14,1.1.89,1.2-.26.07-.58.14-.85.05-.29-.1-.37-.32-.46-.58-.2-.58-.66-.78-1.2-1,.23-.08.63-.11.89-.07.3.05.53.13.73.39Z"/>
    <path class="cls-17" d="M22.97,58.29c.11-.09.15-.12.33-.19.15-.06.35-.06.51-.08.13-.01.28-.06.4-.11.13-.06.23-.12.37-.29-.04.15-.05.28-.1.38-.05.12-.11.2-.2.29-.12.11-.41.2-.57.23-.43.1-.67.26-1,.56-.13.12-.24.28-.3.46.04-.26.08-.54.17-.74.1-.22.21-.39.38-.53Z"/>
    <path class="cls-17" d="M23.06,58.04c.59-.29,1.34.07,1.61-.8.03.33.05.72-.12,1.02-.18.33-.46.37-.78.42-.73.11-1.06.62-1.44,1.21-.04-.29,0-.77.11-1.07.13-.34.27-.61.61-.78Z"/>
    <path class="cls-21" d="M15.82,65.13c-.39.16-.65.3-.97.53-.17.12-.39.28-.53.44-.14.17-.3.36-.41.55-.02.03-.03.06-.04.09,0,.02,0,.08-.01.09.27-.4.46-.7.86-.99.27-.2.56-.39.87-.52.55-.23,1.09-.36,1.76-.46.38-.05.76-.14,1.02-.45.22-.27.3-.67.21-1-.05-.16-.15-.39-.28-.5-.3-.26-.71-.33-1.06-.15-.11.06-.23.18-.3.29-.3.51.19,1.23.77.94.11-.06.18-.14.21-.25.03-.11.02-.22-.02-.32-.05-.1-.12-.17-.21-.22-.09-.04-.18-.04-.28.01-.04.02-.07.06-.09.1-.03.06-.02.13.01.19.04.08.1.11.19.09.01,0,.03-.01.06-.02,0-.01-.02-.03-.03-.05-.02-.05-.03-.09-.02-.11.01-.03.03-.05.07-.07.04-.02.08-.02.13,0,.05.02.08.06.11.1.05.09.06.18.04.26-.03.1-.09.18-.19.23-.13.06-.26.07-.4.03-.14-.04-.24-.13-.31-.26-.09-.18-.1-.36-.02-.54.06-.15.17-.26.3-.33.45-.23.92-.07,1.15.38.11.23.15.45.1.67-.06.31-.27.57-.55.71-.31.16-.63.19-.97.24-.35.05-.81.15-1.16.29Z"/>
    <g>
      <path class="cls-20" d="M23.49,59.76c-.2.12-.49.02-.7-.03.2-.09.29-.37.49-.49.21-.12.43,0,.63-.09-.13.17-.25.51-.42.62Z"/>
      <path class="cls-15" d="M23.52,59.85c-.27.16-.65.02-.93-.04.27-.12.39-.5.65-.66.28-.17.58,0,.85-.13-.17.22-.33.69-.57.83Z"/>
    </g>
    <path class="cls-23" d="M19.17,64.47c-.19.19-.55.16-.8.16.2-.16.22-.51.41-.7.2-.2.49-.13.69-.29-.1.23-.14.66-.31.82Z"/>
  </g>
  <g id="Flor_izq_A" data-name="Flor izq A">
    <g>
      <path class="cls-14" d="M17.66,55.77c.09-.36.52-.58.81-.76-.12.33.1.74.02,1.1-.09.37-.48.5-.6.83-.04-.33-.31-.86-.23-1.17Z"/>
      <path class="cls-14" d="M17.52,55.7c.12-.49.7-.77,1.09-1.02-.16.45.14,1,.02,1.48-.12.5-.64.67-.8,1.11-.06-.45-.41-1.15-.31-1.57Z"/>
    </g>
    <path class="cls-18" d="M16.44,61.66c-1.26,1.81-.86,3.2-.72,3.38.14.19.19.01.19.01-.89-1.7.89-3.47,1.03-3.61.52-.5,2.31-1.05,2.46-.03.21-.41-.22-.94-.67-.88.07-.07.91-1.06.62-1.34-.1.21-.43.5-1.39,1.18-1.11.73-1.4,1.16-1.52,1.28Z"/>
    <path class="cls-10" d="M19.25,53.28c-.23.16-.3.49-.21.56.35-.94,1.05-.42,1.2-.31.82.61.33,2.37.24,2.6-.67,1.73-2.02,2.72-2.2,2.88-1.09.85-1.89,1.86-2.01,2.04-.78,1.14-.74,2.41-.69,2.56.05.16.1.11.1.11-.07-.68.08-1.19.14-1.39.31-1.26,1.79-2.57,2-2.72,1.32-1.09,1.88-1.87,2.02-2.06,1.6-2.33.89-3.72.73-3.91-.51-.61-1.08-.52-1.31-.36Z"/>
    <path class="cls-14" d="M18.2,55.44c.42-.37.63-.94.64-1.49-.52-.3-1.41-.05-1.58.69-.08.37-.18,1.4-.84,1.5.53.14,1.39-.34,1.79-.69Z"/>
    <path class="cls-14" d="M17.57,53.42c-.55-.23-.85-.66-1.14-1.15.57.42,1.34-.14,1.93.17.49.25.58.82.59,1.32-.39-.28-.93-.15-1.38-.33Z"/>
    <path class="cls-14" d="M18.84,55.14c-.17-.39.09-.89.23-1.26.12.39.61.62.77,1,.17.41-.1.79.02,1.17-.27-.28-.87-.58-1.02-.92Z"/>
    <path class="cls-14" d="M17.88,54.84c-.42.32-.88.35-1.39.35.57-.24.49-1.08.99-1.39.41-.26.88-.08,1.26.14-.39.17-.53.64-.87.9Z"/>
    <path class="cls-19" d="M18.46,55.5c-.06-.39.28-.78.49-1.08.02.38.41.69.47,1.08.07.41-.27.69-.25,1.06-.18-.31-.65-.72-.71-1.06Z"/>
    <path class="cls-14" d="M17.19,53.01c.48.03.85.53,1.14.86-.45-.08-.92.3-1.39.27-.49-.03-.74-.5-1.18-.57.41-.13,1.01-.58,1.43-.55Z"/>
    <path class="cls-14" d="M18.04,52.05c.31.26.3.77.34,1.14-.26-.27-.76-.25-1.06-.51-.32-.26-.25-.7-.51-.97.34.12.97.11,1.23.34Z"/>
    <path class="cls-14" d="M20.35,52.58c.12.02.16.03.3.1.12.06.23.18.33.27.08.07.19.14.28.19.11.05.2.07.39.07-.12.06-.2.12-.29.15-.1.03-.18.05-.29.04-.14-.01-.35-.15-.46-.22-.3-.21-.53-.27-.9-.3-.15-.01-.31,0-.45.07.18-.12.38-.25.55-.3.19-.06.36-.09.54-.06Z"/>
    <path class="cls-14" d="M20.55,52.5c.51.2.7.86,1.38.56-.19.2-.42.43-.69.49-.3.07-.48-.08-.69-.25-.47-.39-.97-.32-1.54-.22.16-.19.48-.43.72-.52.28-.11.52-.17.82-.05Z"/>
    <path class="cls-14" d="M18.62,51.13c.05-.13.07-.18.19-.33.1-.13.27-.24.4-.33.1-.08.21-.19.28-.3.08-.12.13-.23.17-.44.05.15.1.27.11.38.02.13.02.23-.02.35-.04.16-.25.38-.36.5-.31.31-.44.57-.55,1-.05.17-.06.37-.02.55-.1-.24-.22-.5-.24-.72-.03-.24-.03-.44.05-.66Z"/>
    <path class="cls-14" d="M18.56,50.87c.35-.56,1.17-.64.96-1.53.19.26.42.59.43.93.02.37-.2.56-.45.77-.56.48-.58,1.08-.59,1.78-.19-.23-.41-.66-.47-.97-.07-.36-.09-.66.11-.99Z"/>
    <path class="cls-18" d="M16.11,60.71c-.25.34-.39.6-.55.96-.08.2-.19.44-.22.65-.04.22-.07.46-.06.69,0,.03,0,.06.02.09,0,.02.04.07.04.09.02-.48.03-.83.21-1.29.13-.31.27-.63.47-.9.35-.49.74-.88,1.26-1.31.3-.25.58-.52.63-.92.05-.35-.09-.73-.35-.97-.12-.11-.33-.25-.5-.28-.39-.07-.78.1-.98.43-.07.11-.1.27-.1.4,0,.59.8.95,1.15.39.06-.1.08-.21.05-.33-.03-.11-.09-.2-.19-.26-.1-.06-.19-.08-.29-.08-.1,0-.18.06-.24.16-.02.04-.03.09-.03.14,0,.07.05.12.11.16.07.04.14.04.21-.02.01-.01.02-.03.04-.05-.01,0-.03-.01-.06-.03-.05-.03-.07-.06-.08-.09,0-.03,0-.06.02-.1.02-.03.06-.06.11-.06.05,0,.1,0,.15.03.09.05.14.12.17.2.03.1.02.2-.04.3-.07.12-.18.2-.32.24-.14.04-.28.02-.4-.06-.17-.11-.27-.26-.3-.45-.02-.16,0-.31.09-.44.26-.43.75-.54,1.18-.28.22.13.36.31.44.52.11.3.07.62-.1.89-.18.3-.44.5-.7.71-.27.23-.61.55-.84.85Z"/>
    <g>
      <path class="cls-14" d="M19.83,52.12c-.11.21-.41.27-.61.34.12-.18.05-.47.16-.67.11-.21.37-.23.49-.41-.02.21.06.57-.04.75Z"/>
      <path class="cls-14" d="M19.9,52.18c-.15.28-.54.36-.82.45.17-.25.07-.63.21-.9.15-.29.49-.31.66-.55-.03.28.08.76-.05,1Z"/>
    </g>
    <path class="cls-14" d="M18.62,58.39c-.06.27-.38.43-.6.56.09-.25-.08-.55-.01-.81.07-.28.35-.37.44-.61.03.24.23.63.17.86Z"/>
    <path class="cls-14" d="M16.05,62.54c-.29.33-.35.71-.39,1.13.24-.46.93-.33,1.23-.73.24-.32.13-.73-.03-1.06-.17.31-.57.4-.81.66Z"/>
    <path class="cls-14" d="M15.8,62.55c.2.4-.03.94-.15,1.33-.15-.4-.67-.6-.88-.99-.21-.41.05-.83-.1-1.22.3.27.95.54,1.12.89Z"/>
  </g>
  <g id="Flor_ojo_der" data-name="Flor ojo der">
    <path class="cls-23" d="M75.35,44.06c-.32.17-.65.14-.99.09.42-.11.45-.69.83-.85.31-.13.61.04.85.24-.29.08-.43.38-.69.52Z"/>
    <path class="cls-23" d="M81.09,44.26c-.34-.01-.99-.12-1.26-.28-.31-.18-.3-.67-.45-.99-.19-.41-.3-.52-.62-.8-.15-.14-.35-.29-.55-.33-.16-.04-.37-.11-.51-.22-.09-.07-.34-.26-.23-.55-.29.69.08,1.39.4,1.81.43.56.72.81,1.76,1.12.24.07.45.13.69.2.22.06.54.11.77.08.15-.02.1-.03,0-.03Z"/>
    <path class="cls-23" d="M77.27,45.59c-.33.03-.53.41-.41.63.05.1.18.16.26.11.14-.09-.04-.26-.07-.39-.04-.17.08-.23.22-.35Z"/>
    <path class="cls-23" d="M84.51,46.52c-.29-.39-.56-.7-.73-1.11-.21-.53-.06-.93-.25-1.48.29.2.65.4.82.74.23.48-.05,1.06.08,1.51-.14-.42,0-1.04-.5-1.4-.04.53.19,1.14.59,1.73Z"/>
    <path class="cls-23" d="M80.11,45.04s.03-.03.03-.05c0-.06-.09-.13-.13-.17-.08-.07-.11-.13-.04-.23-.15.04-.11.34-.02.41.03.03.12.06.16.03Z"/>
    <path class="cls-23" d="M81.91,44.4c-.64-.07-1.01-.83-.76-1.25.11-.18.35-.3.5-.19.26.19-.08.5-.15.75-.08.33.14.45.41.69Z"/>
    <path class="cls-23" d="M79.85,44.37c-.09.21-.23.39-.44.5-.12.06-.25.1-.39.11-.15.01-.3-.01-.44,0-.07,0-.33.03-.4.09-.03.02-.06.05-.08.08.12-.35.18-.75.53-.95.34-.19.87-.1,1.25-.04-.39.2-1.07.04-1.32.51-.02.03.28.07.39.07.12,0,.23-.04.34-.08.22-.09.4-.25.61-.36-.02.01-.04.04-.05.08Z"/>
    <path class="cls-23" d="M77.48,43.5c-.32-.1-.68-.03-.96.15.01.36.42.73.85.59.21-.07.77-.35,1.03-.04-.1-.31-.61-.6-.91-.69Z"/>
    <path class="cls-23" d="M77.11,42.97c-.17.29-.43.42-.73.55.28-.29.02-.76.24-1.07.18-.25.5-.26.78-.23-.19.2-.15.51-.29.74Z"/>
    <path class="cls-23" d="M75.67,43.66c.18-.14.46-.07.67-.04-.18.11-.24.39-.41.52-.18.14-.41.05-.59.16.11-.17.18-.52.34-.63Z"/>
    <path class="cls-23" d="M75.98,43.13c.07.15.2.25.32.36-.18-.02-.49-.03-.65-.13-.14-.08-.33-.3-.38-.45-.1-.31-.1-.81-.4-.97.42.04.91.17,1.02.62.05.19.02.38.1.56Z"/>
    <path class="cls-23" d="M76.36,43.53c.01-.09-.29-.2-.34-.25-.13-.11-.24-.27-.26-.45-.02-.2.02-.61.13-.77-.02.04.23.24.25.27.3.35.29.76.22,1.2Z"/>
    <path class="cls-23" d="M79.6,42.55c.24.13.33.44.2.68s-.44.33-.68.2-.33-.44-.2-.68.44-.33.68-.2Z"/>
    <path class="cls-23" d="M77.08,44.98c.16-.02.3-.13.43-.21-.06.17-.16.46-.3.59-.11.11-.38.24-.53.25-.32.02-.81-.12-1.04.13.15-.39.41-.83.87-.82.2,0,.37.09.57.06Z"/>
    <path class="cls-23" d="M77.57,44.72c-.08-.04-.27.22-.33.26-.14.1-.33.16-.5.13-.2-.04-.58-.18-.7-.33.03.03.3-.15.33-.17.42-.19.81-.08,1.21.11Z"/>
    <path class="cls-23" d="M78.08,44.73c-.6.13-.89.89-.6,1.27.12.16.36.26.5.14.24-.21-.13-.47-.22-.71-.11-.3.09-.44.32-.7Z"/>
    <path class="cls-23" d="M78.09,42.44c.16.09.22.29.13.45s-.29.22-.45.13-.22-.29-.13-.45.29-.22.45-.13Z"/>
    <path class="cls-23" d="M79.73,44.76c.04.12.06.24.01.36-.02.07-.06.13-.11.19-.05.06-.12.1-.18.16-.03.03-.12.14-.12.19,0,.02,0,.04,0,.06-.09-.18-.21-.36-.14-.58.06-.2.31-.37.48-.48-.08.23-.41.42-.33.7,0,.02.14-.08.18-.12.04-.05.08-.1.1-.16.05-.12.06-.25.1-.37,0,.01,0,.03,0,.05Z"/>
    <path class="cls-23" d="M82.24,44.13c.11.06.15.19.09.3s-.19.15-.3.09-.15-.19-.09-.3.19-.15.3-.09Z"/>
    <path class="cls-23" d="M80.8,44.1c-.2-.06-.44-.17-.57-.33-.09-.11-.14-.22-.18-.36-.04-.14-.04-.29-.08-.43-.02-.07-.1-.31-.17-.37-.03-.02-.06-.05-.09-.06.51.06,1.08.03,1.13.68.03.3.05.56.16.85-.27-.33-.25-1.02-.75-1.18-.03,0-.01.29.01.39.03.11.08.22.15.31.13.18.29.33.44.5-.02,0-.03,0-.05-.01Z"/>
    <path class="cls-23" d="M83.93,46.46c-.34-.41-.88-.53-1.3-.31-.42.22-.65.72-1.05.85-.49.16-.85-.25-.52-.81.55-.94,2.36-.99,2.87.27Z"/>
    <path class="cls-23" d="M82.89,45.85c.11.06.15.2.09.31s-.2.15-.31.09-.15-.2-.09-.31.2-.15.31-.09Z"/>
    <path class="cls-23" d="M81.63,45.62c.21.12.29.38.18.6s-.38.29-.6.18-.29-.38-.18-.6.38-.29.6-.18Z"/>
    <path class="cls-23" d="M84.83,48.09c.13.27.09.52.03.8-.07-.34-.53-.39-.65-.7-.09-.25.06-.49.22-.67.05.23.29.36.39.57Z"/>
    <path class="cls-23" d="M84.03,46.64c.23.15.32.36.41.6-.22-.23-.6-.05-.84-.23-.2-.15-.19-.41-.15-.63.15.16.4.14.58.26Z"/>
    <path class="cls-23" d="M84.52,47.81c-.1-.15-.04-.37,0-.53.08.15.3.2.4.35.1.15.02.33.1.48-.13-.09-.4-.17-.49-.3Z"/>
    <path class="cls-23" d="M84.11,47.55c.12-.05.21-.15.3-.24-.02.14-.04.39-.13.51-.07.1-.25.25-.37.29-.25.07-.65.04-.79.28.05-.33.17-.72.54-.79.16-.03.3,0,.45-.05Z"/>
    <path class="cls-23" d="M84.45,47.26c-.07-.02-.17.22-.21.26-.1.1-.23.18-.37.19-.16,0-.48-.04-.61-.14.03.02.2-.17.23-.19.29-.22.62-.2.96-.13Z"/>
    <path class="cls-23" d="M80,44.26c-.14.3.1.67.35.67.11,0,.23-.07.22-.17-.01-.17-.24-.09-.37-.13-.17-.05-.16-.18-.2-.36Z"/>
    <path class="cls-23" d="M84.75,45.63s.02.02.02.03c.03.08-.09.14-.14.18-.03.02-.07.05-.08.09,0,.03,0,.12.03.13-.14-.04-.09-.31-.02-.39.04-.04.11-.1.18-.04Z"/>
    <path class="cls-23" d="M84.62,46.42c-.11-.3.14-.63.38-.62.1,0,.21.09.2.18-.02.16-.24.08-.37.1-.16.04-.17.16-.21.34Z"/>
    <path class="cls-23" d="M81.88,44.24c-.27-.06-.32-.38-.14-.55.08-.07.2-.11.25-.06.09.09-.11.2-.18.3-.09.13,0,.19.07.3Z"/>
    <path class="cls-23" d="M83.49,46.25c-.42-.2-.94.12-.95.48,0,.15.1.32.23.31.24-.02.14-.34.2-.52.07-.23.25-.22.51-.27Z"/>
    <path class="cls-23" d="M76.45,44.43s.02,0,.03-.01c.09-.05.03-.19,0-.25-.09-.17-.24-.32-.03-.48-.02.01-.06.01-.09.03-.03.02-.06.06-.08.09-.05.08-.09.18-.09.28,0,.09,0,.19.07.26.04.04.13.1.2.09Z"/>
    <path class="cls-23" d="M83.04,45.45c-.18-.15-.44-.31-.78-.44-.29-.11-.66-.19-.85-.09-.17.08-.2.33,0,.4.13.05.28.05.4.04.36-.04.79-.09,1.24.09Z"/>
    <path class="cls-23" d="M83.55,45.1c.03-.1.03-.2,0-.29-.02-.06-.06-.11-.1-.15-.05-.05-.1-.08-.15-.13-.02-.02-.1-.11-.11-.15,0-.02,0-.03,0-.05-.06.15-.15.3-.09.47.06.16.26.28.41.37-.07-.18-.35-.32-.3-.55,0-.01.12.06.15.09.04.04.07.08.09.13.05.09.06.2.1.3,0,0,0-.02,0-.04Z"/>
    <path class="cls-23" d="M76.64,42.21s.02.03.02.05c0,.07-.12.12-.17.16-.03.02-.07.04-.09.08,0,.02-.01.11.01.12-.13-.06-.04-.33.04-.39.04-.03.13-.05.18-.01Z"/>
    <path class="cls-23" d="M90.71,52.13c-1.44.39-2.83-.28-4-1.92-1.05-1.48-1.4-2.98-2.64-4.31-.28-.3-.61-.59-.96-.8-.69-.42-.93-.47-.1.04.35.22.68.48.96.78,1.24,1.33,1.65,3.03,2.7,4.51,1.11,1.55,2.57,2.23,4.07,1.85-.02-.05-.03-.1-.03-.15Z"/>
    <path class="cls-12" d="M90.64,51.26c-.74.19-1.57.18-2.42-.23-.05-.03-.11-.05-.16-.08-.56-.31-1.05-.74-1.43-1.25-.48-.63-.95-1.26-1.43-1.89-.5-.66-1.71-2.52-2.91-3.17-.43-.24-.87-.32-1.27-.12-.12.06-.21.15-.26.24-.13.24-.06.53.17.65.02,0,.03.02.05.02l.02-.04s-.03-.01-.04-.02c-.2-.11-.27-.38-.15-.59.05-.09.13-.17.24-.22.38-.19.8-.12,1.23.12,1.18.64,2.39,2.5,2.89,3.16.48.63.95,1.26,1.43,1.89.39.51.88.95,1.45,1.26.05.03.11.06.16.08.85.41,1.68.43,2.42.25,0-.02.01-.04.02-.05Z"/>
    <path class="cls-23" d="M84.75,45.34s.06.08.04.13-.08.06-.13.04-.06-.08-.04-.13.08-.06.13-.04Z"/>
    <path class="cls-23" d="M76.69,45.81s.06.08.04.13-.08.06-.13.04-.06-.08-.04-.13.08-.06.13-.04Z"/>
    <path class="cls-12" d="M89.1,52.41c-.41-.05-.78-.18-1.12-.37h0c-.86-.47-1.51-1.29-2.06-2.09h0c-.19-.28-.4-.57-.7-.73h0s-.08-.04-.13-.06h0c-.34-.13-.76-.04-.91.24h0c-.08.15-.09.35.03.6h0l-.04.02c-.13-.26-.12-.48-.03-.64h0c.17-.3.61-.4.97-.26h0s.09.04.13.06h0c.31.17.53.47.72.75h0c.54.8,1.19,1.61,2.04,2.07h0c.34.18.7.31,1.11.36h0c.56.07,1.1-.02,1.59-.14h0v.04c-.48.13-1.03.21-1.59.14h0Z"/>
    <g>
      <path class="cls-23" d="M86.66,50.14s0-.11-.03-.17c1.11-.3,1.47-1.16,1.33-1.6-.14-.46-.54-.74-.85-.63-.32.09-.34.23-.29.34.04.1.12.05.2,0,.13-.11.4-.05.48.21.07.25-.03.47-.35.56-.3.09-.59-.12-.68-.4-.09-.3.06-.74.57-.89.49-.15,1,.23,1.16.74.15.49-.12,1.43-1.54,1.85h0Z"/>
      <path class="cls-23" d="M88.02,49.44c.25-.15.54-.39.82-.74.24-.3.48-.7.45-.95-.03-.23-.3-.36-.47-.17-.11.13-.17.3-.21.45-.1.44-.21.96-.6,1.41Z"/>
      <path class="cls-23" d="M88.23,47.32c.1.16.11.36.14.55.1-.18.3-.49.31-.72.01-.19-.06-.52-.18-.67-.23-.3-.72-.64-.67-1.04-.24.43-.44.99-.09,1.4.15.18.36.27.48.47Z"/>
      <path class="cls-23" d="M88.36,47.95c-.1-.05,0-.42-.01-.5-.02-.2-.1-.41-.26-.55-.18-.16-.6-.39-.83-.39.05,0,.09.38.1.42.14.52.54.79,1.01,1.01Z"/>
      <path class="cls-23" d="M87.09,46.66c.14-.26.12-.51.09-.79-.09.33-.56.35-.69.65-.11.25.03.49.18.69.06-.23.31-.34.43-.55Z"/>
      <path class="cls-23" d="M86.2,48.05c.24-.13.34-.34.45-.57-.23.22-.6,0-.85.17-.21.14-.22.39-.19.62.16-.15.41-.11.6-.22Z"/>
      <path class="cls-23" d="M86.76,46.91c-.11.14-.06.37-.05.53.09-.14.31-.18.42-.32.11-.14.04-.33.13-.47-.14.08-.41.14-.51.26Z"/>
      <path class="cls-23" d="M86.34,47.15c.12.05.2.16.28.26-.01-.14-.02-.39-.09-.52-.06-.11-.23-.27-.35-.31-.24-.09-.65-.09-.77-.33.03.34.13.73.48.82.15.04.3.02.45.08Z"/>
      <path class="cls-23" d="M86.66,47.46c-.07.01-.16-.23-.2-.28-.09-.11-.21-.2-.36-.21-.16-.02-.48,0-.61.09.03-.02.19.18.21.2.28.24.6.24.95.19Z"/>
      <path class="cls-23" d="M86.48,49.91c.17-.06.27-.22.25-.38-.02-.16-.15-.29-.15-.43,0-.17.18-.24.32-.07.23.28.04.86-.42.88Z"/>
      <path class="cls-23" d="M86.2,49.16s0,.05.02.08c.11.11.34,0,.32.23,0-.05.03-.07.02-.13-.01-.06-.04-.11-.08-.16-.04-.05-.12-.08-.19-.08-.04,0-.08.02-.09.05Z"/>
      <path class="cls-23" d="M86.67,49.81c-.03-.32-.41-.51-.62-.39-.09.05-.15.17-.1.25.09.13.25-.04.38-.07.16-.04.22.07.34.21Z"/>
      <path class="cls-23" d="M86.25,45.82s.02.01.03.02c.06.06-.04.16-.07.22-.02.03-.05.07-.05.11,0,.03.03.11.07.11-.15,0-.18-.27-.14-.36.02-.05.07-.13.16-.1Z"/>
      <path class="cls-23" d="M86.38,46.61c-.2-.25-.07-.65.16-.71.1-.03.23.01.25.11.03.16-.2.15-.32.22-.14.09-.11.21-.09.39Z"/>
      <path class="cls-23" d="M87.18,49.45s.08.07.06.12c-.02.05-.07.08-.12.06-.05-.02-.08-.07-.06-.12.02-.05.07-.08.12-.06Z"/>
    </g>
    <path class="cls-23" d="M82.07,41.57c-.31.18-.56.35-.88.44-.41.11-.69-.03-1.11.06.17-.2.35-.44.62-.54.38-.13.78.12,1.12.07-.32.07-.77-.09-1.08.25.39.07.86-.05,1.33-.28Z"/>
    <g>
      <path class="cls-23" d="M91.25,53.5s-.03-.05-.03-.09c-.6.15-1-.16-1.05-.41-.06-.25.06-.49.23-.52.18-.04.22.02.23.08.01.06-.05.06-.09.05-.09-.02-.2.08-.17.22.04.14.14.21.31.17.17-.04.24-.21.22-.37-.04-.17-.23-.33-.5-.27-.27.06-.41.37-.35.65.06.27.44.65,1.22.47h0Z"/>
      <path class="cls-23" d="M90.41,53.53c-.16,0-.36-.04-.58-.13-.19-.08-.41-.2-.47-.33-.05-.12.05-.25.18-.2.09.03.16.1.22.16.17.18.35.4.66.51Z"/>
      <path class="cls-23" d="M89.76,52.58c0,.1.04.2.08.3-.1-.06-.27-.15-.34-.26-.05-.08-.11-.26-.09-.36.03-.2.17-.49.04-.67.23.14.47.35.41.64-.03.12-.1.22-.1.35Z"/>
      <path class="cls-23" d="M89.87,52.92s-.11-.2-.13-.24c-.04-.1-.06-.22-.02-.33.05-.12.18-.34.29-.4-.02.01.06.2.07.23.07.28-.05.51-.21.75Z"/>
      <path class="cls-23" d="M90.12,51.97c-.14-.08-.19-.21-.25-.35.13.13.36.02.5.13.12.09.12.24.1.37-.09-.09-.24-.08-.35-.15Z"/>
      <path class="cls-23" d="M90.91,52.39c-.15,0-.25-.07-.36-.15.17.04.29-.16.45-.14.13.01.21.13.26.24-.11-.03-.22.05-.34.05Z"/>
      <path class="cls-23" d="M90.34,52c.09.04.13.16.16.24-.08-.04-.2,0-.28-.04-.09-.04-.11-.14-.19-.19.09,0,.23-.04.31-.01Z"/>
      <path class="cls-23" d="M90.61,52c-.04.06-.05.13-.07.2-.03-.07-.1-.19-.09-.27,0-.07.04-.19.08-.24.09-.1.28-.21.28-.36.08.17.13.38,0,.52-.06.06-.14.09-.19.16Z"/>
      <path class="cls-23" d="M90.54,52.23s.01-.15.02-.18c.01-.07.05-.15.11-.19.07-.05.23-.13.32-.12-.02,0-.04.14-.05.15-.07.19-.22.27-.4.34Z"/>
      <path class="cls-23" d="M91.27,53.35c-.1.02-.19-.03-.22-.11-.03-.08,0-.18-.04-.24-.05-.08-.15-.07-.17.05-.04.2.21.42.43.3Z"/>
      <path class="cls-23" d="M91.2,52.92s.02.02.01.04c-.02.08-.16.09-.09.2-.01-.02-.03-.02-.04-.05,0-.03,0-.07,0-.1,0-.03.04-.07.07-.09.02-.01.04,0,.06,0Z"/>
      <path class="cls-23" d="M91.15,53.35c-.07-.16.06-.35.19-.35.06,0,.12.04.11.09,0,.09-.13.05-.2.07-.09.02-.09.09-.11.19Z"/>
      <path class="cls-23" d="M90.3,51.35s0,.01,0,.02c-.01.04.06.07.09.08.02,0,.04.02.05.04,0,.01.01.06,0,.07.07-.04.01-.17-.03-.21-.02-.02-.07-.04-.1,0Z"/>
      <path class="cls-23" d="M90.44,51.76c.03-.17-.14-.32-.27-.29-.06.01-.11.07-.09.11.03.08.13.02.21.02.09,0,.11.07.15.16Z"/>
      <path class="cls-23" d="M90.82,53.31s-.02.05,0,.07c.02.02.05.02.07,0,.02-.02.02-.05,0-.07-.02-.02-.05-.02-.07,0Z"/>
    </g>
    <g>
      <path class="cls-23" d="M90.72,50.94s-.08,0-.11,0c-.12-.77-.67-1.07-.98-1.01-.32.06-.54.31-.49.52.04.22.13.25.21.22.07-.02.04-.08,0-.13-.07-.09,0-.27.18-.31.17-.03.31.05.35.28.04.21-.13.39-.32.43-.21.04-.49-.1-.55-.45-.06-.34.23-.65.58-.73.34-.06.96.19,1.13,1.17h0Z"/>
      <path class="cls-23" d="M90.35,49.97c-.08-.18-.22-.39-.43-.61-.18-.18-.44-.38-.61-.37-.16,0-.27.18-.15.3.08.09.19.14.28.17.29.1.63.21.91.51Z"/>
      <path class="cls-23" d="M88.94,49.67c.12-.06.25-.05.38-.05-.11-.08-.31-.24-.46-.26-.12-.02-.36,0-.46.07-.22.13-.48.44-.75.37.27.2.63.37.94.16.13-.09.21-.22.35-.29Z"/>
      <path class="cls-23" d="M89.38,49.63c-.04.06-.28-.03-.34-.03-.14,0-.29.04-.39.14-.12.11-.31.37-.32.53,0-.03.26-.03.29-.03.36-.06.57-.3.76-.6Z"/>
      <path class="cls-23" d="M88.42,50.39c-.16-.12-.34-.12-.53-.12.22.09.2.4.39.51.16.09.33.02.47-.07-.15-.06-.21-.24-.34-.33Z"/>
      <path class="cls-23" d="M89.28,51.09c-.07-.17-.2-.26-.35-.35.13.17-.04.41.05.59.08.15.25.18.4.18-.09-.12-.05-.28-.1-.42Z"/>
      <path class="cls-23" d="M88.56,50.63c.09.08.24.07.35.07-.09-.07-.1-.22-.19-.31-.09-.09-.22-.05-.31-.13.05.1.06.29.14.36Z"/>
      <path class="cls-23" d="M88.69,50.93c.05-.08.12-.12.19-.17-.1,0-.26-.02-.36.02-.08.03-.2.14-.24.21-.08.16-.11.43-.28.49.23,0,.5-.03.59-.26.04-.1.03-.2.09-.3Z"/>
      <path class="cls-23" d="M88.92,50.74c0,.05-.17.09-.2.11-.08.05-.15.13-.17.22-.02.11-.03.33.02.42-.01-.02.14-.12.15-.13.18-.17.21-.39.2-.63Z"/>
      <path class="cls-23" d="M90.56,51.04c-.03-.12-.13-.2-.24-.2-.11,0-.2.08-.3.07-.12-.02-.15-.14-.02-.22.21-.14.58.04.56.35Z"/>
      <path class="cls-23" d="M90.03,51.17s.04,0,.06,0c.08-.06.03-.23.18-.2-.03,0-.04-.03-.08-.02-.04,0-.08.02-.11.04-.03.02-.06.08-.07.12,0,.03,0,.05.03.07Z"/>
      <path class="cls-23" d="M90.5,50.9c-.22,0-.37.24-.31.39.03.07.1.12.16.09.1-.05,0-.17-.02-.26-.01-.11.06-.14.16-.21Z"/>
      <path class="cls-23" d="M87.79,50.89s0-.01.02-.02c.05-.03.11.04.14.06.02.02.04.04.07.04.02,0,.08-.01.08-.04,0,.1-.19.1-.26.07-.03-.02-.08-.06-.05-.11Z"/>
      <path class="cls-23" d="M88.33,50.86c-.18.12-.44,0-.47-.16-.01-.07.03-.15.09-.16.11,0,.08.15.12.23.05.1.13.09.25.09Z"/>
      <path class="cls-23" d="M90.3,50.53s.05-.05.08-.03c.03.01.05.05.03.08-.01.03-.05.05-.08.03-.03-.01-.05-.05-.03-.08Z"/>
    </g>
    <g>
      <path class="cls-23" d="M90.15,53.92s.06.02.09.01c-.01.62.39.94.64.93.26,0,.46-.17.45-.35,0-.18-.07-.21-.13-.2-.06,0-.04.06-.03.1.04.08-.03.21-.18.22-.14,0-.24-.08-.24-.26,0-.17.15-.29.31-.3.17,0,.38.14.38.43,0,.28-.27.49-.56.49-.28,0-.73-.27-.74-1.08h0Z"/>
      <path class="cls-23" d="M90.31,54.74c.04.15.12.34.26.54.12.17.29.36.43.38.12.02.23-.1.16-.22-.05-.08-.13-.13-.2-.17-.21-.12-.47-.25-.65-.52Z"/>
      <path class="cls-23" d="M91.39,55.16c-.1.03-.2,0-.31,0,.08.08.21.23.33.27.09.03.28.04.37,0,.19-.07.44-.28.64-.2-.19-.19-.45-.38-.72-.25-.11.05-.19.15-.32.18Z"/>
      <path class="cls-23" d="M91.04,55.14s.22.06.26.07c.11.02.23,0,.33-.06.11-.07.29-.25.32-.38,0,.03-.21-.01-.23-.01-.29,0-.49.16-.68.38Z"/>
      <path class="cls-23" d="M91.9,54.67c.11.11.25.14.4.16-.16-.1-.1-.34-.24-.46-.11-.09-.26-.06-.38,0,.11.07.13.21.22.3Z"/>
      <path class="cls-23" d="M91.31,54c.03.14.13.23.23.32-.08-.15.09-.32.04-.47-.04-.13-.17-.17-.29-.19.05.1,0,.23.03.34Z"/>
      <path class="cls-23" d="M91.82,54.46c-.06-.08-.18-.09-.27-.1.06.07.05.19.11.27.06.08.17.07.23.14-.02-.08-.01-.24-.06-.3Z"/>
      <path class="cls-23" d="M91.76,54.2c-.05.05-.11.08-.18.11.08.02.21.05.29.03.07-.02.18-.08.21-.14.08-.11.14-.32.29-.35-.18-.04-.4-.04-.5.13-.04.07-.05.15-.11.22Z"/>
      <path class="cls-23" d="M91.55,54.32s.14-.05.17-.06c.07-.03.13-.08.16-.15.03-.08.07-.25.04-.33,0,.02-.12.07-.14.08-.17.11-.21.28-.24.47Z"/>
      <path class="cls-23" d="M90.3,53.87c0,.1.07.17.16.19.08.01.17-.04.25-.01.09.03.1.13-.01.18-.18.08-.45-.11-.39-.35Z"/>
      <path class="cls-23" d="M90.73,53.83s-.03-.01-.05,0c-.07.04-.05.18-.17.13.02,0,.03.03.06.03.03,0,.07,0,.09-.02.03-.01.06-.05.07-.09,0-.02,0-.04-.01-.06Z"/>
      <path class="cls-23" d="M90.32,53.98c.17.03.32-.14.29-.27-.01-.06-.07-.11-.11-.09-.08.03-.02.13-.02.21,0,.09-.07.11-.16.15Z"/>
      <path class="cls-23" d="M92.46,54.35s0,0-.02.01c-.04.02-.08-.04-.1-.07-.01-.02-.03-.04-.05-.04-.01,0-.06,0-.07.02.02-.08.17-.05.21-.02.02.02.06.06.03.1Z"/>
      <path class="cls-23" d="M92.03,54.3c.16-.07.35.06.35.19,0,.06-.04.12-.09.11-.09,0-.05-.13-.07-.2-.02-.09-.09-.09-.19-.11Z"/>
      <path class="cls-23" d="M90.43,54.3s-.05.03-.07.01c-.02-.02-.03-.05-.01-.07.02-.02.05-.03.07-.01.02.02.03.05.01.07Z"/>
    </g>
  </g>
  <path class="cls-6" d="M63.93,61.57h0s-1.88.58-3.85,2.01c-1.24.9-2.7,2.45-3.68,3.44-.07.07,2.33-1.33,3.73-2.64,1.37-1.28,3.79-2.81,3.79-2.81Z"/>
  <path class="cls-6" d="M82.76,66.84s-2.3,1.26-4.72,2.91c-.92.63-3.01,1.8-3.9,2.19-1.99.87-3.38.86-3.38.86,0,0,2.49-1.49,3.1-1.92.74-.52,2.32-1.66,3.1-2.12,1.06-.63,5.8-1.92,5.8-1.92Z"/>
  <path class="cls-6" d="M74.18,64.25c-1.49-.86-2.25-1.55-4.38-2.05-3.13-.74-5.97.28-8.26,2.17-4.01,3.31-4.86,3.34-5.31,3.85,1.09.21,2.73.71,4.79,1.51,1.34.52,4.08,1.71,6.43,1.52,3.72-.3,5.3-1.76,6.97-2.72,1.78-1.03,4.06-2.09,5.3-2.1-2.51.86-3.58,1.35-5.63,2.61-1.46.89-3.3,2.3-6.43,2.5-2.18.14-3.35-.22-6.78-1.64-2.72-1.13-4.53-1.47-4.85-1.61-.38-.16,1.49-.98,3.35-2.5.97-.79,3.44-2.92,5.21-3.56,1.78-.64,3.92-.68,5.33-.3,3.33,1.03,2.8,1.4,6.54,3.28,1.66.83,2.34.88,3.26,1.22-2.03-.12-3.81-1.17-5.54-2.17Z"/>
  <path class="cls-13" d="M81.92,66.43c-4.32,0-6.62-2.35-10.31-4.07-3.13-1.46-6.72-.97-9.41,1.16-4.62,3.66-6.02,4.14-6.31,4.76,1.25.26,3.13.98,5.03,1.7,1.45.55,4.48,2.25,6.88,2,4.26-.45,6.31-2.71,8.22-3.84,1.85-1.1,5.21-2.35,7.36-1.69.06.02.06.1,0,.12-2.41.85-5.52,1.45-7.63,3-1.58,1.16-4.37,3.54-7.95,3.95-2.17.15-3.96-.85-6.28-2.1-4.38-2.35-5.28-2.35-6.42-2.57-1.99-.39,2.28-1.84,5.38-4.67,4.35-3.96,7.75-4.26,10.18-3.49,3.92,1.24,4.44,2.74,8.4,4.44,2.06.88,3.46.87,4.38,1.37.37.01-1.14-.07-1.52-.07Z"/>
  <path class="cls-13" d="M15.71,66.57c4.32,0,6.62-2.35,10.31-4.07,3.13-1.46,6.72-.97,9.41,1.16,4.62,3.66,6.02,4.14,6.31,4.76-1.25.26-3.13.98-5.03,1.7-1.45.55-4.48,2.25-6.88,2-4.26-.45-6.31-2.71-8.22-3.84-1.85-1.1-5.21-2.35-7.36-1.69-.06.02-.06.1,0,.12,2.41.85,5.52,1.45,7.63,3,1.58,1.16,4.37,3.54,7.95,3.95,2.17.15,3.96-.85,6.28-2.1,4.38-2.35,5.28-2.35,6.42-2.57,1.99-.39-2.28-1.84-5.38-4.67-4.35-3.96-7.75-4.26-10.18-3.49-3.92,1.24-4.44,2.74-8.4,4.44-2.06.88-3.46.87-4.38,1.37-.37.01,1.14-.07,1.52-.07Z"/>
</svg>